<?xml version="1.0" encoding="UTF-8" standalone="no"?><svg xmlns="http://www.w3.org/2000/svg" xmlns:xlink="http://www.w3.org/1999/xlink" contentScriptType="application/ecmascript" contentStyleType="text/css" height="422px" preserveAspectRatio="none" style="width:548px;height:422px;" version="1.1" viewBox="0 0 548 422" width="548px" zoomAndPan="magnify"><defs><filter height="300%" id="fuc79cp6e7z66" width="300%" x="-1" y="-1"><feGaussianBlur result="blurOut" stdDeviation="2.0"/><feColorMatrix in="blurOut" result="blurOut2" type="matrix" values="0 0 0 0 0 0 0 0 0 0 0 0 0 0 0 0 0 0 .4 0"/><feOffset dx="4.0" dy="4.0" in="blurOut2" result="blurOut3"/><feBlend in="SourceGraphic" in2="blurOut3" mode="normal"/></filter></defs><g><text fill="#000000" font-family="sans-serif" font-size="18" lengthAdjust="spacingAndGlyphs" textLength="322" x="112" y="29.2419">Diet Activity Diagram with Explicit I/O</text><ellipse cx="279" cy="44.5158" fill="#000000" filter="url(#fuc79cp6e7z66)" rx="10" ry="10" style="stroke: none; stroke-width: 1.0;"/><path d="M66.5,64.5158 L66.5,127.6339 A0,0 0 0 0 66.5,127.6339 L212.5,127.6339 A0,0 0 0 0 212.5,127.6339 L212.5,100.0749 L232.5,96.0749 L212.5,92.0749 L212.5,74.5158 L202.5,64.5158 L66.5,64.5158 A0,0 0 0 0 66.5,64.5158 " fill="#FBFB77" filter="url(#fuc79cp6e7z66)" style="stroke: #A80036; stroke-width: 1.0;"/><path d="M202.5,64.5158 L202.5,74.5158 L212.5,74.5158 L202.5,64.5158 " fill="#FBFB77" style="stroke: #A80036; stroke-width: 1.0;"/><text fill="#000000" font-family="sans-serif" font-size="13" font-weight="bold" lengthAdjust="spacingAndGlyphs" textLength="41" x="72.5" y="83.4129">Input:</text><ellipse cx="78" cy="97.4279" fill="#000000" rx="2.5" ry="2.5" style="stroke: #000000; stroke-width: 0.0;"/><text fill="#000000" font-family="sans-serif" font-size="13" lengthAdjust="spacingAndGlyphs" textLength="84" x="84.5" y="101.1189">Raw user data</text><text fill="#000000" font-family="sans-serif" font-size="13" lengthAdjust="spacingAndGlyphs" textLength="125" x="72.5" y="118.8249">(Weight, Height, etc.)</text><rect fill="#FEFECE" filter="url(#fuc79cp6e7z66)" height="36.3441" rx="12.5" ry="12.5" style="stroke: #A80036; stroke-width: 1.5;" width="93" x="232.5" y="77.9028"/><text fill="#000000" font-family="sans-serif" font-size="12" lengthAdjust="spacingAndGlyphs" textLength="73" x="242.5" y="100.7309">Receive Data</text><path d="M10,151.272 L10,196.684 L158,196.684 L158,161.272 L148,151.272 L10,151.272 " fill="#FBFB77" filter="url(#fuc79cp6e7z66)" style="stroke: #A80036; stroke-width: 1.0;"/><path d="M148,151.272 L148,161.272 L158,161.272 L148,151.272 " fill="#FBFB77" style="stroke: #A80036; stroke-width: 1.0;"/><text fill="#000000" font-family="sans-serif" font-size="13" font-weight="bold" lengthAdjust="spacingAndGlyphs" textLength="41" x="16" y="170.169">Input:</text><ellipse cx="21.5" cy="184.184" fill="#000000" rx="2.5" ry="2.5" style="stroke: #000000; stroke-width: 0.0;"/><text fill="#000000" font-family="sans-serif" font-size="13" lengthAdjust="spacingAndGlyphs" textLength="115" x="28" y="187.875">Validated user data</text><path d="M400,142.419 L400,205.537 L536,205.537 L536,152.419 L526,142.419 L400,142.419 " fill="#FBFB77" filter="url(#fuc79cp6e7z66)" style="stroke: #A80036; stroke-width: 1.0;"/><path d="M526,142.419 L526,152.419 L536,152.419 L526,142.419 " fill="#FBFB77" style="stroke: #A80036; stroke-width: 1.0;"/><text fill="#000000" font-family="sans-serif" font-size="13" font-weight="bold" lengthAdjust="spacingAndGlyphs" textLength="52" x="406" y="161.316">Output:</text><ellipse cx="411.5" cy="175.331" fill="#000000" rx="2.5" ry="2.5" style="stroke: #000000; stroke-width: 0.0;"/><text fill="#000000" font-family="sans-serif" font-size="13" lengthAdjust="spacingAndGlyphs" textLength="95" x="418" y="179.022">Analyzed Profile</text><ellipse cx="411.5" cy="193.037" fill="#000000" rx="2.5" ry="2.5" style="stroke: #000000; stroke-width: 0.0;"/><text fill="#000000" font-family="sans-serif" font-size="13" lengthAdjust="spacingAndGlyphs" textLength="103" x="418" y="196.728">Calculated Needs</text><rect fill="#FEFECE" filter="url(#fuc79cp6e7z66)" height="52.6882" rx="12.5" ry="12.5" style="stroke: #A80036; stroke-width: 1.5;" width="222" x="168" y="147.6339"/><text fill="#000000" font-family="sans-serif" font-size="12" lengthAdjust="spacingAndGlyphs" textLength="74" x="178" y="170.462">Analyze Data</text><a href="analyze_data_activity_diagramm.svg" target="_top" title="analyze_data_activity_diagramm.svg" xlink:actuate="onRequest" xlink:href="analyze_data_activity_diagramm.svg" xlink:show="new" xlink:title="analyze_data_activity_diagramm.svg" xlink:type="simple"><text fill="#0000FF" font-family="sans-serif" font-size="12" lengthAdjust="spacingAndGlyphs" text-decoration="underline" textLength="202" x="178" y="186.8061">analyze_data_activity_diagramm.svg</text></a><path d="M43,215.537 L43,296.3611 L179,296.3611 L179,225.537 L169,215.537 L43,215.537 " fill="#FBFB77" filter="url(#fuc79cp6e7z66)" style="stroke: #A80036; stroke-width: 1.0;"/><path d="M169,215.537 L169,225.537 L179,225.537 L169,215.537 " fill="#FBFB77" style="stroke: #A80036; stroke-width: 1.0;"/><text fill="#000000" font-family="sans-serif" font-size="13" font-weight="bold" lengthAdjust="spacingAndGlyphs" textLength="41" x="49" y="234.434">Input:</text><ellipse cx="54.5" cy="248.4491" fill="#000000" rx="2.5" ry="2.5" style="stroke: #000000; stroke-width: 0.0;"/><text fill="#000000" font-family="sans-serif" font-size="13" lengthAdjust="spacingAndGlyphs" textLength="95" x="61" y="252.1401">Analyzed Profile</text><ellipse cx="54.5" cy="266.1551" fill="#000000" rx="2.5" ry="2.5" style="stroke: #000000; stroke-width: 0.0;"/><text fill="#000000" font-family="sans-serif" font-size="13" lengthAdjust="spacingAndGlyphs" textLength="103" x="61" y="269.8461">Calculated Needs</text><ellipse cx="54.5" cy="283.8611" fill="#000000" rx="2.5" ry="2.5" style="stroke: #000000; stroke-width: 0.0;"/><text fill="#000000" font-family="sans-serif" font-size="13" lengthAdjust="spacingAndGlyphs" textLength="100" x="61" y="287.5521">Sport Preference</text><path d="M379,224.39 L379,287.5081 L494,287.5081 L494,234.39 L484,224.39 L379,224.39 " fill="#FBFB77" filter="url(#fuc79cp6e7z66)" style="stroke: #A80036; stroke-width: 1.0;"/><path d="M484,224.39 L484,234.39 L494,234.39 L484,224.39 " fill="#FBFB77" style="stroke: #A80036; stroke-width: 1.0;"/><text fill="#000000" font-family="sans-serif" font-size="13" font-weight="bold" lengthAdjust="spacingAndGlyphs" textLength="52" x="385" y="243.2871">Output:</text><ellipse cx="390.5" cy="257.3021" fill="#000000" rx="2.5" ry="2.5" style="stroke: #000000; stroke-width: 0.0;"/><text fill="#000000" font-family="sans-serif" font-size="13" lengthAdjust="spacingAndGlyphs" textLength="82" x="397" y="260.9931">Workout Plan</text><ellipse cx="390.5" cy="275.0081" fill="#000000" rx="2.5" ry="2.5" style="stroke: #000000; stroke-width: 0.0;"/><text fill="#000000" font-family="sans-serif" font-size="13" lengthAdjust="spacingAndGlyphs" textLength="53" x="397" y="278.6991">Diet Plan</text><rect fill="#FEFECE" filter="url(#fuc79cp6e7z66)" height="36.3441" rx="12.5" ry="12.5" style="stroke: #A80036; stroke-width: 1.5;" width="180" x="189" y="237.777"/><text fill="#000000" font-family="sans-serif" font-size="12" lengthAdjust="spacingAndGlyphs" textLength="160" x="199" y="260.6051">Generate Recommendations</text><path d="M61.5,306.3611 L61.5,369.4792 A0,0 0 0 0 61.5,369.4792 L176.5,369.4792 A0,0 0 0 0 176.5,369.4792 L176.5,341.9201 L196.5,337.9201 L176.5,333.9201 L176.5,316.3611 L166.5,306.3611 L61.5,306.3611 A0,0 0 0 0 61.5,306.3611 " fill="#FBFB77" filter="url(#fuc79cp6e7z66)" style="stroke: #A80036; stroke-width: 1.0;"/><path d="M166.5,306.3611 L166.5,316.3611 L176.5,316.3611 L166.5,306.3611 " fill="#FBFB77" style="stroke: #A80036; stroke-width: 1.0;"/><text fill="#000000" font-family="sans-serif" font-size="13" font-weight="bold" lengthAdjust="spacingAndGlyphs" textLength="41" x="67.5" y="325.2581">Input:</text><ellipse cx="73" cy="339.2731" fill="#000000" rx="2.5" ry="2.5" style="stroke: #000000; stroke-width: 0.0;"/><text fill="#000000" font-family="sans-serif" font-size="13" lengthAdjust="spacingAndGlyphs" textLength="82" x="79.5" y="342.9641">Workout Plan</text><ellipse cx="73" cy="356.9792" fill="#000000" rx="2.5" ry="2.5" style="stroke: #000000; stroke-width: 0.0;"/><text fill="#000000" font-family="sans-serif" font-size="13" lengthAdjust="spacingAndGlyphs" textLength="53" x="79.5" y="360.6701">Diet Plan</text><rect fill="#FEFECE" filter="url(#fuc79cp6e7z66)" height="36.3441" rx="12.5" ry="12.5" style="stroke: #A80036; stroke-width: 1.5;" width="165" x="196.5" y="319.7481"/><text fill="#000000" font-family="sans-serif" font-size="12" lengthAdjust="spacingAndGlyphs" textLength="145" x="206.5" y="342.5762">Output Recommendations</text><ellipse cx="279" cy="400.4792" fill="#FFFFFF" filter="url(#fuc79cp6e7z66)" rx="11" ry="11" style="stroke: #000000; stroke-width: 1.0;"/><ellipse cx="279" cy="400.4792" fill="#000000" rx="6" ry="6" style="stroke: #7F7F7F; stroke-width: 1.0;"/><line style="stroke: #A80036; stroke-width: 1.5;" x1="279" x2="279" y1="54.5158" y2="77.9028"/><polygon fill="#A80036" points="275,67.9028,279,77.9028,283,67.9028,279,71.9028" style="stroke: #A80036; stroke-width: 1.0;"/><line style="stroke: #A80036; stroke-width: 1.5;" x1="279" x2="279" y1="114.2469" y2="147.6339"/><polygon fill="#A80036" points="275,137.6339,279,147.6339,283,137.6339,279,141.6339" style="stroke: #A80036; stroke-width: 1.0;"/><line style="stroke: #A80036; stroke-width: 1.5;" x1="279" x2="279" y1="200.3221" y2="237.777"/><polygon fill="#A80036" points="275,227.777,279,237.777,283,227.777,279,231.777" style="stroke: #A80036; stroke-width: 1.0;"/><line style="stroke: #A80036; stroke-width: 1.5;" x1="279" x2="279" y1="274.1211" y2="319.7481"/><polygon fill="#A80036" points="275,309.7481,279,319.7481,283,309.7481,279,313.7481" style="stroke: #A80036; stroke-width: 1.0;"/><line style="stroke: #A80036; stroke-width: 1.5;" x1="279" x2="279" y1="356.0922" y2="389.4792"/><polygon fill="#A80036" points="275,379.4792,279,389.4792,283,379.4792,279,383.4792" style="stroke: #A80036; stroke-width: 1.0;"/><!--MD5=[51f6a6fdb9fd0bd291b9c78971e9e0ed]
@startuml
title Diet Activity Diagram with Explicit I/O

start

:Receive Data;
note left
  **Input:**
  * Raw user data
  (Weight, Height, etc.)
end note

:Analyze Data
[[analyze_data_activity_diagramm.svg]];
note left
  **Input:**
  * Validated user data
end note
note right
  **Output:**
  * Analyzed Profile
  * Calculated Needs
end note

:Generate Recommendations;
note left
  **Input:**
  * Analyzed Profile
  * Calculated Needs
  * Sport Preference
end note
note right
  **Output:**
  * Workout Plan
  * Diet Plan
end note

:Output Recommendations;
note left
  **Input:**
  * Workout Plan
  * Diet Plan
end note

stop

@enduml

PlantUML version 1.2020.02(Sun Mar 01 11:22:07 CET 2020)
(GPL source distribution)
Java Runtime: OpenJDK Runtime Environment
JVM: OpenJDK 64-Bit Server VM
Java Version: 21.0.7-ea+8-Debian-1
Operating System: Linux
Default Encoding: UTF-8
Language: de
Country: DE
--></g></svg>