<?xml version="1.0" encoding="UTF-8" standalone="no"?><svg xmlns="http://www.w3.org/2000/svg" xmlns:xlink="http://www.w3.org/1999/xlink" contentScriptType="application/ecmascript" contentStyleType="text/css" height="817px" preserveAspectRatio="none" style="width:1125px;height:817px;" version="1.1" viewBox="0 0 1125 817" width="1125px" zoomAndPan="magnify"><defs><filter height="300%" id="f1d1x8y49q3x2v" width="300%" x="-1" y="-1"><feGaussianBlur result="blurOut" stdDeviation="2.0"/><feColorMatrix in="blurOut" result="blurOut2" type="matrix" values="0 0 0 0 0 0 0 0 0 0 0 0 0 0 0 0 0 0 .4 0"/><feOffset dx="4.0" dy="4.0" in="blurOut2" result="blurOut3"/><feBlend in="SourceGraphic" in2="blurOut3" mode="normal"/></filter></defs><g><text fill="#000000" font-family="sans-serif" font-size="18" lengthAdjust="spacingAndGlyphs" textLength="241" x="441" y="29.2419">Detail: Analyze Data Process</text><ellipse cx="562" cy="44.5158" fill="#000000" filter="url(#f1d1x8y49q3x2v)" rx="10" ry="10" style="stroke: none; stroke-width: 1.0;"/><path d="M224,87.007 L224,114.713 A0,0 0 0 0 224,114.713 L394,114.713 A0,0 0 0 0 394,114.713 L394,105.007 L414,100.86 L394,97.007 L394,97.007 L384,87.007 L224,87.007 A0,0 0 0 0 224,87.007 " fill="#FBFB77" filter="url(#f1d1x8y49q3x2v)" style="stroke: #A80036; stroke-width: 1.0;"/><path d="M384,87.007 L384,97.007 L394,97.007 L384,87.007 " fill="#FBFB77" style="stroke: #A80036; stroke-width: 1.0;"/><text fill="#000000" font-family="sans-serif" font-size="13" lengthAdjust="spacingAndGlyphs" textLength="149" x="230" y="105.904">Input from previous step</text><rect fill="#FEFECE" filter="url(#f1d1x8y49q3x2v)" height="52.6882" rx="12.5" ry="12.5" style="stroke: #A80036; stroke-width: 1.5;" width="296" x="414" y="74.5158"/><text fill="#000000" font-family="sans-serif" font-size="12" lengthAdjust="spacingAndGlyphs" textLength="158" x="424" y="97.3439">Receive Validated User Data</text><text fill="#000000" font-family="sans-serif" font-size="12" lengthAdjust="spacingAndGlyphs" textLength="276" x="424" y="113.6881">(Weight, Height, Age, Gender, Activity Level, Goal)</text><rect fill="#FEFECE" filter="url(#f1d1x8y49q3x2v)" height="36.3441" rx="12.5" ry="12.5" style="stroke: #A80036; stroke-width: 1.5;" width="204" x="460" y="147.2041"/><text fill="#000000" font-family="sans-serif" font-size="12" lengthAdjust="spacingAndGlyphs" textLength="184" x="470" y="170.0322">Calculate Body Mass Index (BMI)</text><rect fill="#FEFECE" filter="url(#f1d1x8y49q3x2v)" height="69.0323" rx="12.5" ry="12.5" style="stroke: #A80036; stroke-width: 1.5;" width="244" x="440" y="203.5482"/><text fill="#000000" font-family="sans-serif" font-size="12" lengthAdjust="spacingAndGlyphs" textLength="156" x="450" y="226.3763">Determine Weight Category</text><text fill="#000000" font-family="sans-serif" font-size="12" lengthAdjust="spacingAndGlyphs" textLength="224" x="450" y="242.7204">(e.g., Underweight, Normal, Overweight)</text><text fill="#000000" font-family="sans-serif" font-size="12" lengthAdjust="spacingAndGlyphs" textLength="85" x="450" y="259.0645">(based on BMI)</text><path d="M696.5,313.2437 L696.5,323.0967 L676.5,327.0967 L696.5,331.0967 L696.5,340.9497 A0,0 0 0 0 696.5,340.9497 L941.5,340.9497 A0,0 0 0 0 941.5,340.9497 L941.5,323.2437 L931.5,313.2437 L696.5,313.2437 A0,0 0 0 0 696.5,313.2437 " fill="#FBFB77" filter="url(#f1d1x8y49q3x2v)" style="stroke: #A80036; stroke-width: 1.0;"/><path d="M931.5,313.2437 L931.5,323.2437 L941.5,323.2437 L931.5,313.2437 " fill="#FBFB77" style="stroke: #A80036; stroke-width: 1.0;"/><text fill="#000000" font-family="sans-serif" font-size="13" lengthAdjust="spacingAndGlyphs" textLength="224" x="702.5" y="332.1407">Requires Weight, Height, Age, Gender</text><rect fill="#FEFECE" filter="url(#f1d1x8y49q3x2v)" height="69.0323" rx="12.5" ry="12.5" style="stroke: #A80036; stroke-width: 1.5;" width="229" x="447.5" y="292.5805"/><text fill="#000000" font-family="sans-serif" font-size="12" lengthAdjust="spacingAndGlyphs" textLength="209" x="457.5" y="315.4086">Calculate Basal Metabolic Rate (BMR)</text><text fill="#000000" font-family="sans-serif" font-size="12" lengthAdjust="spacingAndGlyphs" textLength="189" x="457.5" y="331.7527">(e.g., using Mifflin-St Jeor formula)</text><a href="detail_bmr_calculation.svg" target="_top" title="detail_bmr_calculation.svg" xlink:actuate="onRequest" xlink:href="detail_bmr_calculation.svg" xlink:show="new" xlink:title="detail_bmr_calculation.svg" xlink:type="simple"><text fill="#0000FF" font-family="sans-serif" font-size="12" lengthAdjust="spacingAndGlyphs" text-decoration="underline" textLength="146" x="457.5" y="348.0969">detail_bmr_calculation.svg</text></a><path d="M725.5,394.104 L725.5,403.957 L705.5,407.957 L725.5,411.957 L725.5,421.81 A0,0 0 0 0 725.5,421.81 L913.5,421.81 A0,0 0 0 0 913.5,421.81 L913.5,404.104 L903.5,394.104 L725.5,394.104 A0,0 0 0 0 725.5,394.104 " fill="#FBFB77" filter="url(#f1d1x8y49q3x2v)" style="stroke: #A80036; stroke-width: 1.0;"/><path d="M903.5,394.104 L903.5,404.104 L913.5,404.104 L903.5,394.104 " fill="#FBFB77" style="stroke: #A80036; stroke-width: 1.0;"/><text fill="#000000" font-family="sans-serif" font-size="13" lengthAdjust="spacingAndGlyphs" textLength="167" x="731.5" y="413.001">Requires BMR, Activity Level</text><rect fill="#FEFECE" filter="url(#f1d1x8y49q3x2v)" height="52.6882" rx="12.5" ry="12.5" style="stroke: #A80036; stroke-width: 1.5;" width="287" x="418.5" y="381.6129"/><text fill="#000000" font-family="sans-serif" font-size="12" lengthAdjust="spacingAndGlyphs" textLength="267" x="428.5" y="404.441">Calculate Total Daily Energy Expenditure (TDEE)</text><text fill="#000000" font-family="sans-serif" font-size="12" lengthAdjust="spacingAndGlyphs" textLength="125" x="428.5" y="420.7851">(BMR * Activity Factor)</text><polygon fill="#FEFECE" filter="url(#f1d1x8y49q3x2v)" points="76,454.3011,132,454.3011,144,466.3011,132,478.3011,76,478.3011,64,466.3011,76,454.3011" style="stroke: #A80036; stroke-width: 1.5;"/><text fill="#000000" font-family="sans-serif" font-size="11" lengthAdjust="spacingAndGlyphs" textLength="63" x="108" y="490.06">Weight Loss</text><text fill="#000000" font-family="sans-serif" font-size="11" lengthAdjust="spacingAndGlyphs" textLength="56" x="76" y="470.5691">User Goal?</text><path d="M218,524.0511 L218,533.9041 L198,537.9041 L218,541.9041 L218,551.7571 A0,0 0 0 0 218,551.7571 L449,551.7571 A0,0 0 0 0 449,551.7571 L449,534.0511 L439,524.0511 L218,524.0511 A0,0 0 0 0 218,524.0511 " fill="#FBFB77" filter="url(#f1d1x8y49q3x2v)" style="stroke: #A80036; stroke-width: 1.0;"/><path d="M439,524.0511 L439,534.0511 L449,534.0511 L439,524.0511 " fill="#FBFB77" style="stroke: #A80036; stroke-width: 1.0;"/><text fill="#000000" font-family="sans-serif" font-size="13" lengthAdjust="spacingAndGlyphs" textLength="210" x="224" y="542.9481">Set Target Calories = Adjusted TDEE</text><rect fill="#FEFECE" filter="url(#f1d1x8y49q3x2v)" height="52.6882" rx="12.5" ry="12.5" style="stroke: #A80036; stroke-width: 1.5;" width="188" x="10" y="511.56"/><text fill="#000000" font-family="sans-serif" font-size="12" lengthAdjust="spacingAndGlyphs" textLength="168" x="20" y="534.3881">Adjust TDEE for Caloric Deficit</text><text fill="#000000" font-family="sans-serif" font-size="12" lengthAdjust="spacingAndGlyphs" textLength="120" x="20" y="550.7322">(e.g., TDEE - 500 kcal)</text><polygon fill="#FEFECE" filter="url(#f1d1x8y49q3x2v)" points="534.5,454.3011,597.5,454.3011,609.5,466.3011,597.5,478.3011,534.5,478.3011,522.5,466.3011,534.5,454.3011" style="stroke: #A80036; stroke-width: 1.5;"/><text fill="#000000" font-family="sans-serif" font-size="11" lengthAdjust="spacingAndGlyphs" textLength="17" x="570" y="490.06">yes</text><text fill="#000000" font-family="sans-serif" font-size="11" lengthAdjust="spacingAndGlyphs" textLength="63" x="534.5" y="470.5691">Muscle Gain</text><text fill="#000000" font-family="sans-serif" font-size="11" lengthAdjust="spacingAndGlyphs" textLength="86" x="609.5" y="463.0781">Maintain Weight</text><path d="M683,524.0511 L683,533.9041 L663,537.9041 L683,541.9041 L683,551.7571 A0,0 0 0 0 683,551.7571 L914,551.7571 A0,0 0 0 0 914,551.7571 L914,534.0511 L904,524.0511 L683,524.0511 A0,0 0 0 0 683,524.0511 " fill="#FBFB77" filter="url(#f1d1x8y49q3x2v)" style="stroke: #A80036; stroke-width: 1.0;"/><path d="M904,524.0511 L904,534.0511 L914,534.0511 L904,524.0511 " fill="#FBFB77" style="stroke: #A80036; stroke-width: 1.0;"/><text fill="#000000" font-family="sans-serif" font-size="13" lengthAdjust="spacingAndGlyphs" textLength="210" x="689" y="542.9481">Set Target Calories = Adjusted TDEE</text><rect fill="#FEFECE" filter="url(#f1d1x8y49q3x2v)" height="52.6882" rx="12.5" ry="12.5" style="stroke: #A80036; stroke-width: 1.5;" width="194" x="469" y="511.56"/><text fill="#000000" font-family="sans-serif" font-size="12" lengthAdjust="spacingAndGlyphs" textLength="174" x="479" y="534.3881">Adjust TDEE for Caloric Surplus</text><text fill="#000000" font-family="sans-serif" font-size="12" lengthAdjust="spacingAndGlyphs" textLength="123" x="479" y="550.7322">(e.g., TDEE + 300 kcal)</text><rect fill="#FEFECE" filter="url(#f1d1x8y49q3x2v)" height="36.3441" rx="12.5" ry="12.5" style="stroke: #A80036; stroke-width: 1.5;" width="180" x="934" y="515.2411"/><text fill="#000000" font-family="sans-serif" font-size="12" lengthAdjust="spacingAndGlyphs" textLength="160" x="944" y="538.0692">Use TDEE as Target Calories</text><rect fill="#FEFECE" filter="url(#f1d1x8y49q3x2v)" height="69.0323" rx="12.5" ry="12.5" style="stroke: #A80036; stroke-width: 1.5;" width="314" x="405" y="604.2482"/><text fill="#000000" font-family="sans-serif" font-size="12" lengthAdjust="spacingAndGlyphs" textLength="181" x="415" y="627.0763">Calculate Target Macronutrients</text><text fill="#000000" font-family="sans-serif" font-size="12" lengthAdjust="spacingAndGlyphs" textLength="294" x="415" y="643.4204">(Protein, Carbs, Fat based on Goal &amp; Target Calories)</text><a href="detail_macro_calculation.svg" target="_top" title="detail_macro_calculation.svg" xlink:actuate="onRequest" xlink:href="detail_macro_calculation.svg" xlink:show="new" xlink:title="detail_macro_calculation.svg" xlink:type="simple"><text fill="#0000FF" font-family="sans-serif" font-size="12" lengthAdjust="spacingAndGlyphs" text-decoration="underline" textLength="159" x="415" y="659.7646">detail_macro_calculation.svg</text></a><path d="M637,683.2806 L637,719.6926 L617,723.6926 L637,727.6926 L637,764.1047 A0,0 0 0 0 637,764.1047 L922,764.1047 A0,0 0 0 0 922,764.1047 L922,693.2806 L912,683.2806 L637,683.2806 A0,0 0 0 0 637,683.2806 " fill="#FBFB77" filter="url(#f1d1x8y49q3x2v)" style="stroke: #A80036; stroke-width: 1.0;"/><path d="M912,683.2806 L912,693.2806 L922,693.2806 L912,683.2806 " fill="#FBFB77" style="stroke: #A80036; stroke-width: 1.0;"/><text fill="#000000" font-family="sans-serif" font-size="13" lengthAdjust="spacingAndGlyphs" textLength="132" x="643" y="702.1776">Output for next steps:</text><text fill="#000000" font-family="sans-serif" font-size="13" lengthAdjust="spacingAndGlyphs" textLength="264" x="643" y="719.8836">Analyzed Profile (BMI, Category, BMR, TDEE),</text><text fill="#000000" font-family="sans-serif" font-size="13" lengthAdjust="spacingAndGlyphs" textLength="92" x="643" y="737.5896">Target Calories,</text><text fill="#000000" font-family="sans-serif" font-size="13" lengthAdjust="spacingAndGlyphs" textLength="86" x="643" y="755.2956">Target Macros</text><rect fill="#FEFECE" filter="url(#f1d1x8y49q3x2v)" height="36.3441" rx="12.5" ry="12.5" style="stroke: #A80036; stroke-width: 1.5;" width="110" x="507" y="705.5206"/><text fill="#000000" font-family="sans-serif" font-size="12" lengthAdjust="spacingAndGlyphs" textLength="90" x="517" y="728.3487">Package Results</text><ellipse cx="562" cy="795.1047" fill="#FFFFFF" filter="url(#f1d1x8y49q3x2v)" rx="11" ry="11" style="stroke: #000000; stroke-width: 1.0;"/><ellipse cx="562" cy="795.1047" fill="#000000" rx="6" ry="6" style="stroke: #7F7F7F; stroke-width: 1.0;"/><line style="stroke: #A80036; stroke-width: 1.5;" x1="562" x2="562" y1="54.5158" y2="74.5158"/><polygon fill="#A80036" points="558,64.5158,562,74.5158,566,64.5158,562,68.5158" style="stroke: #A80036; stroke-width: 1.0;"/><line style="stroke: #A80036; stroke-width: 1.5;" x1="562" x2="562" y1="127.2041" y2="147.2041"/><polygon fill="#A80036" points="558,137.2041,562,147.2041,566,137.2041,562,141.2041" style="stroke: #A80036; stroke-width: 1.0;"/><line style="stroke: #A80036; stroke-width: 1.5;" x1="562" x2="562" y1="183.5482" y2="203.5482"/><polygon fill="#A80036" points="558,193.5482,562,203.5482,566,193.5482,562,197.5482" style="stroke: #A80036; stroke-width: 1.0;"/><line style="stroke: #A80036; stroke-width: 1.5;" x1="562" x2="562" y1="272.5805" y2="292.5805"/><polygon fill="#A80036" points="558,282.5805,562,292.5805,566,282.5805,562,286.5805" style="stroke: #A80036; stroke-width: 1.0;"/><line style="stroke: #A80036; stroke-width: 1.5;" x1="562" x2="562" y1="361.6129" y2="381.6129"/><polygon fill="#A80036" points="558,371.6129,562,381.6129,566,371.6129,562,375.6129" style="stroke: #A80036; stroke-width: 1.0;"/><line style="stroke: #A80036; stroke-width: 1.5;" x1="104" x2="104" y1="478.3011" y2="511.56"/><polygon fill="#A80036" points="100,501.56,104,511.56,108,501.56,104,505.56" style="stroke: #A80036; stroke-width: 1.0;"/><line style="stroke: #A80036; stroke-width: 1.5;" x1="104" x2="104" y1="564.2482" y2="584.2482"/><polygon fill="#A80036" points="100,574.2482,104,584.2482,108,574.2482,104,578.2482" style="stroke: #A80036; stroke-width: 1.0;"/><line style="stroke: #A80036; stroke-width: 1.5;" x1="566" x2="566" y1="478.3011" y2="511.56"/><polygon fill="#A80036" points="562,501.56,566,511.56,570,501.56,566,505.56" style="stroke: #A80036; stroke-width: 1.0;"/><line style="stroke: #A80036; stroke-width: 1.5;" x1="566" x2="566" y1="564.2482" y2="584.2482"/><polygon fill="#A80036" points="562,574.2482,566,584.2482,570,574.2482,566,578.2482" style="stroke: #A80036; stroke-width: 1.0;"/><line style="stroke: #A80036; stroke-width: 1.5;" x1="144" x2="522.5" y1="466.3011" y2="466.3011"/><polygon fill="#A80036" points="512.5,462.3011,522.5,466.3011,512.5,470.3011,516.5,466.3011" style="stroke: #A80036; stroke-width: 1.0;"/><line style="stroke: #A80036; stroke-width: 1.5;" x1="562" x2="562" y1="434.3011" y2="439.3011"/><line style="stroke: #A80036; stroke-width: 1.5;" x1="562" x2="104" y1="439.3011" y2="439.3011"/><line style="stroke: #A80036; stroke-width: 1.5;" x1="104" x2="104" y1="439.3011" y2="454.3011"/><polygon fill="#A80036" points="100,444.3011,104,454.3011,108,444.3011,104,448.3011" style="stroke: #A80036; stroke-width: 1.0;"/><line style="stroke: #A80036; stroke-width: 1.5;" x1="609.5" x2="1024" y1="466.3011" y2="466.3011"/><line style="stroke: #A80036; stroke-width: 1.5;" x1="1024" x2="1024" y1="466.3011" y2="515.2411"/><polygon fill="#A80036" points="1020,505.2411,1024,515.2411,1028,505.2411,1024,509.2411" style="stroke: #A80036; stroke-width: 1.0;"/><line style="stroke: #A80036; stroke-width: 1.5;" x1="1024" x2="1024" y1="551.5852" y2="584.2482"/><polygon fill="#A80036" points="1020,574.2482,1024,584.2482,1028,574.2482,1024,578.2482" style="stroke: #A80036; stroke-width: 1.0;"/><line style="stroke: #A80036; stroke-width: 1.5;" x1="104" x2="1024" y1="584.2482" y2="584.2482"/><line style="stroke: #A80036; stroke-width: 1.5;" x1="562" x2="562" y1="584.2482" y2="604.2482"/><polygon fill="#A80036" points="558,594.2482,562,604.2482,566,594.2482,562,598.2482" style="stroke: #A80036; stroke-width: 1.0;"/><line style="stroke: #A80036; stroke-width: 1.5;" x1="562" x2="562" y1="673.2806" y2="705.5206"/><polygon fill="#A80036" points="558,695.5206,562,705.5206,566,695.5206,562,699.5206" style="stroke: #A80036; stroke-width: 1.0;"/><line style="stroke: #A80036; stroke-width: 1.5;" x1="562" x2="562" y1="741.8647" y2="784.1047"/><polygon fill="#A80036" points="558,774.1047,562,784.1047,566,774.1047,562,778.1047" style="stroke: #A80036; stroke-width: 1.0;"/><!--MD5=[853df8ff88f98be434841f76e536afe1]
@startuml
title Detail: Analyze Data Process

start

:Receive Validated User Data\n(Weight, Height, Age, Gender, Activity Level, Goal);
note left: Input from previous step

:Calculate Body Mass Index (BMI);

:Determine Weight Category\n(e.g., Underweight, Normal, Overweight)\n(based on BMI);

:Calculate Basal Metabolic Rate (BMR)\n(e.g., using Mifflin-St Jeor formula)\n[[detail_bmr_calculation.svg]];
note right: Requires Weight, Height, Age, Gender

:Calculate Total Daily Energy Expenditure (TDEE)\n(BMR * Activity Factor);
note right: Requires BMR, Activity Level

if (User Goal?) then (Weight Loss)
  :Adjust TDEE for Caloric Deficit\n(e.g., TDEE - 500 kcal);
  note right: Set Target Calories = Adjusted TDEE
else if (Muscle Gain) then (yes)
  :Adjust TDEE for Caloric Surplus\n(e.g., TDEE + 300 kcal);
  note right: Set Target Calories = Adjusted TDEE
else (Maintain Weight)
  :Use TDEE as Target Calories;
endif

:Calculate Target Macronutrients\n(Protein, Carbs, Fat based on Goal & Target Calories)\n[[detail_macro_calculation.svg]];

:Package Results;
note right: Output for next steps:\nAnalyzed Profile (BMI, Category, BMR, TDEE),\nTarget Calories,\nTarget Macros

stop

@enduml

PlantUML version 1.2020.02(Sun Mar 01 11:22:07 CET 2020)
(GPL source distribution)
Java Runtime: OpenJDK Runtime Environment
JVM: OpenJDK 64-Bit Server VM
Java Version: 21.0.7-ea+8-Debian-1
Operating System: Linux
Default Encoding: UTF-8
Language: de
Country: DE
--></g></svg>